<svg xmlns="http://www.w3.org/2000/svg"  viewBox="0 0 100 100" width="100px" height="100px"><path d="M26.5,93C17.953,93,11,86.047,11,77.5v-51C11,17.953,17.953,11,26.5,11h51C86.047,11,93,17.953,93,26.5v51 C93,86.047,86.047,93,77.5,93H26.5z" opacity=".35"/><path fill="#f2f2f2" d="M24.5,91C15.953,91,9,84.047,9,75.5v-51C9,15.953,15.953,9,24.5,9h51C84.047,9,91,15.953,91,24.5v51 C91,84.047,84.047,91,75.5,91H24.5z"/><path fill="#ef8630" d="M75.5,15.5h-51c-4.971,0-9,4.029-9,9v51c0,4.971,4.029,9,9,9h51c4.971,0,9-4.029,9-9v-51 C84.5,19.529,80.471,15.5,75.5,15.5z"/><path fill="#40396e" d="M75.5,86h-51C18.71,86,14,81.29,14,75.5v-51C14,18.71,18.71,14,24.5,14h51 C81.29,14,86,18.71,86,24.5v51C86,81.29,81.29,86,75.5,86z M24.5,17c-4.136,0-7.5,3.364-7.5,7.5v51c0,4.136,3.364,7.5,7.5,7.5h51 c4.136,0,7.5-3.364,7.5-7.5v-51c0-4.136-3.364-7.5-7.5-7.5H24.5z"/><g><path fill="#ffc571" d="M49.016,59.904H37.264l-2.401,7.424c-0.063,0.284-0.316,0.474-0.6,0.442h-5.939 c-0.348,0-0.442-0.19-0.348-0.569l10.173-29.286c0.095-0.316,0.19-0.663,0.316-1.043c0.126-0.663,0.19-1.358,0.19-2.054 c-0.032-0.158,0.095-0.316,0.253-0.348h0.095h8.088c0.253,0,0.379,0.095,0.411,0.253l11.531,32.54 c0.095,0.348,0,0.505-0.316,0.505h-6.603c-0.221,0.032-0.442-0.126-0.505-0.348L49.016,59.904L49.016,59.904z M39.096,53.491 h8.024c-0.19-0.663-0.442-1.453-0.727-2.275c-0.284-0.853-0.569-1.769-0.853-2.717c-0.316-0.979-0.6-1.927-0.916-2.906 c-0.316-0.979-0.6-1.896-0.853-2.812c-0.253-0.885-0.474-1.706-0.695-2.464h-0.063c-0.284,1.358-0.632,2.717-1.074,4.075 c-0.474,1.516-0.948,3.096-1.453,4.676C40.044,50.679,39.57,52.164,39.096,53.491z"/><path fill="#ffc571" d="M66.076,40.001c-1.043,0.032-2.054-0.379-2.812-1.106c-0.727-0.79-1.106-1.832-1.074-2.907 c-0.032-1.074,0.379-2.085,1.137-2.812s1.769-1.106,2.812-1.106c1.232,0,2.18,0.379,2.875,1.106 c0.695,0.758,1.074,1.769,1.043,2.812c0.032,1.074-0.348,2.117-1.106,2.907C68.225,39.653,67.15,40.064,66.076,40.001 L66.076,40.001z M62.538,67.423V43.097c0-0.316,0.126-0.442,0.411-0.442h6.255c0.284,0,0.411,0.158,0.411,0.442v24.326 c0,0.348-0.126,0.505-0.411,0.505h-6.192C62.696,67.929,62.538,67.739,62.538,67.423z"/></g></svg>