<svg xmlns="http://www.w3.org/2000/svg" viewBox="0 0 48 48" width="48" height="48">
  <rect x="4" y="4" width="40" height="40" rx="4" fill="#0C4B33"/>
  <path d="M20.5 10h4.5v18.5c-2.3.5-4 .6-5.8.6-5.5 0-8.3-2.5-8.3-7.2 0-4.5 3-7.5 7.8-7.5.7 0 1.2.1 1.8.2V10zm0 8.8c-.5-.1-.9-.2-1.5-.2-2.3 0-3.6 1.4-3.6 3.9 0 2.4 1.2 3.7 3.5 3.7.5 0 .9 0 1.6-.1V18.8z" fill="#fff"/>
  <rect x="28" y="10" width="4.5" height="3.5" rx=".5" fill="#fff"/>
  <rect x="28" y="15.5" width="4.5" height="14" rx=".5" fill="#fff"/>
  <path d="M32.5 29.5v5c0 3.2-.5 4.7-1.8 6-1.2 1.2-2.8 1.7-4.5 1.7l-1-3.2c1.2 0 2-.3 2.6-.9.6-.6.7-1.4.7-3.1v-5.5h4z" fill="#fff"/>
</svg>