<svg xmlns="http://www.w3.org/2000/svg" viewBox="0 0 48 48" width="48" height="48">
  <ellipse cx="24" cy="24" rx="22" ry="13" fill="#777BB3"/>
  <!-- P -->
  <path d="M10.8 19.2h4.5c2.1 0 3.5 1.2 3.1 3.4-.4 2.3-2.1 3.4-4.2 3.4h-2.2l-.6 3h-2.5l1.9-9.8zm2.2 1.8l-.6 3.2h1.7c1.1 0 1.9-.6 2.1-1.6.2-1-.3-1.6-1.4-1.6h-1.8z" fill="#fff"/>
  <!-- H -->
  <path d="M20.5 19.2h2.5l-.6 3.2h2.8l.6-3.2h2.5l-1.9 9.8h-2.5l.7-3.8h-2.8l-.7 3.8H18.6l1.9-9.8z" fill="#fff"/>
  <!-- P -->
  <path d="M30 19.2h4.5c2.1 0 3.5 1.2 3.1 3.4-.4 2.3-2.1 3.4-4.2 3.4H31.2l-.6 3h-2.5L30 19.2zm2.2 1.8l-.6 3.2h1.7c1.1 0 1.9-.6 2.1-1.6.2-1-.3-1.6-1.4-1.6h-1.8z" fill="#fff"/>
</svg>