<svg xmlns="http://www.w3.org/2000/svg" viewBox="0 0 48 48" width="48" height="48">
  <defs>
    <linearGradient id="pyBlue" x1="0" y1="0" x2="1" y2="0.5">
      <stop offset="0%" stop-color="#5A9FD4"/>
      <stop offset="100%" stop-color="#306998"/>
    </linearGradient>
    <linearGradient id="pyYellow" x1="0" y1="0.5" x2="1" y2="1">
      <stop offset="0%" stop-color="#FFD43B"/>
      <stop offset="100%" stop-color="#FFE873"/>
    </linearGradient>
  </defs>
  <path d="M23.5 4C16 4 16.5 7.5 16.5 7.5V11H24v1H12s-5-.5-5 7.5S11.5 27 11.5 27h3V23.5s-.2-3.5 3.5-3.5h6s3.3.1 3.3-3.2V8.5S27.5 4 23.5 4zm-3.3 2.5a1.3 1.3 0 1 1 0 2.6 1.3 1.3 0 0 1 0-2.6z" fill="url(#pyBlue)"/>
  <path d="M24.5 44c7.5 0 7-3.5 7-3.5V37H24v-1h12s5 .5 5-7.5S36.5 21 36.5 21h-3v3.5s.2 3.5-3.5 3.5h-6s-3.3-.1-3.3 3.2v8.3S20.5 44 24.5 44zm3.3-2.5a1.3 1.3 0 1 1 0-2.6 1.3 1.3 0 0 1 0 2.6z" fill="url(#pyYellow)"/>
</svg>