<svg xmlns="http://www.w3.org/2000/svg" viewBox="0 0 48 48" width="48" height="48">
  <path d="M4 24c0-1.5 1.2-2.8 2-3.5.5-.4 1.5-.8 2.5-.5.3-1.2 1-2 2-2.5V15h4v3h3v-3h4v3h3v-3h4v3h3v-4h-3v-3h3v4h1c1.5 0 3 .5 3.8 1.5 1-.5 2.5-.7 3.2.2.8 1 .5 2.5.2 3.3 1.5 1 2.3 2.5 2.3 4.5 0 7-5 11-14 11H20C12 34 4 30.5 4 24z" fill="#2496ED"/>
  <rect x="10" y="19" width="3.5" height="3.5" rx=".5" fill="#fff" stroke="#2496ED" stroke-width=".4"/>
  <rect x="14.5" y="19" width="3.5" height="3.5" rx=".5" fill="#fff" stroke="#2496ED" stroke-width=".4"/>
  <rect x="19" y="19" width="3.5" height="3.5" rx=".5" fill="#fff" stroke="#2496ED" stroke-width=".4"/>
  <rect x="23.5" y="19" width="3.5" height="3.5" rx=".5" fill="#fff" stroke="#2496ED" stroke-width=".4"/>
  <rect x="14.5" y="14.5" width="3.5" height="3.5" rx=".5" fill="#fff" stroke="#2496ED" stroke-width=".4"/>
  <rect x="19" y="14.5" width="3.5" height="3.5" rx=".5" fill="#fff" stroke="#2496ED" stroke-width=".4"/>
  <rect x="23.5" y="14.5" width="3.5" height="3.5" rx=".5" fill="#fff" stroke="#2496ED" stroke-width=".4"/>
  <rect x="19" y="10" width="3.5" height="3.5" rx=".5" fill="#fff" stroke="#2496ED" stroke-width=".4"/>
  <rect x="28" y="19" width="3.5" height="3.5" rx=".5" fill="#fff" stroke="#2496ED" stroke-width=".4"/>
</svg>