<svg xmlns="http://www.w3.org/2000/svg" viewBox="0 0 48 48" width="48" height="48">
  <path d="M33.3 33.5H11.5c-.4 0-.6-.3-.5-.6l.8-2.8c.2-.7.9-1.2 1.6-1.2h22.2c3.5 0 6.5-2.4 7-5.8.4-3.5-1.8-6.6-5-7.5-.3-.1-.5-.3-.4-.6.5-2.5-.2-5-2-6.8-1.9-1.9-4.5-2.7-7.1-2.2-2.1.4-3.9 1.6-5.1 3.3-.2.3-.6.3-.8.1-1.5-1-3.3-1.2-5-.5-1.7.7-2.9 2.2-3.2 4-.1.5-.5.8-1 .8C9.7 14 7 16.3 6.5 19.7c-.5 3.4 1.5 6.6 4.6 7.8l.5.2-.8 2.8c-.5 1.7.7 3.5 2.5 3.5h20c.5 0 1-.5 1-1v-1.5c.1-.5-.4-1-1-1z" fill="#F38020"/>
  <path d="M37 17.5c-.2 0-.4 0-.6.1-.2.1-.4 0-.5-.1-.7-1.7-2.4-2.9-4.3-2.9-2 0-3.7 1.2-4.3 3-.1.3.1.6.4.6H37c2.5 0 4.5 2 4.5 4.5s-2 4.5-4.5 4.5h-.7c-.3 0-.5.2-.6.5l-.8 2.8c-.1.2 0 .5.3.5h1.8c4.7 0 8.5-3.8 8.5-8.5s-3.8-8.5-8.5-8.5l-1 .1c-.2 0-.4.1-.5.3-.5 1.3-.3 2.6.5 3.6.1.2 0 .4-.2.4z" fill="#FAAE40"/>
</svg>