<svg xmlns="http://www.w3.org/2000/svg" viewBox="0 0 48 48" width="48" height="48">
  <rect x="4" y="4" width="40" height="40" rx="4" fill="#3178C6"/>
  <path d="M15 25h4v11h3V25h4v-2.5H15V25z" fill="#fff"/>
  <path d="M28 34.5c.8.6 1.8 1 3 1 2.5 0 4-1.3 4-3.3 0-1.8-1-2.7-3-3.4l-.7-.3c-1-.4-1.3-.7-1.3-1.2 0-.5.4-.9 1.1-.9.7 0 1.2.3 1.7.7l1.5-1.6c-.8-.8-1.9-1.3-3.2-1.3-2.2 0-3.6 1.3-3.6 3.2 0 1.7 1 2.7 2.7 3.3l.8.3c1.1.4 1.5.7 1.5 1.3s-.5 1-1.4 1c-1 0-1.7-.4-2.3-1.1L28 34.5z" fill="#fff"/>
</svg>